<svg width="0" height="0" class="hidden">
  <symbol xmlns="http://www.w3.org/2000/svg" viewBox="0 0 24 24" id="negative">
    <path d="M0 0h24v24H0V0z" fill="none"></path>
    <circle cx="15.5" cy="9.5" r="1.5"></circle>
    <circle cx="8.5" cy="9.5" r="1.5"></circle>
    <path d="M11.99 2C6.47 2 2 6.48 2 12s4.47 10 9.99 10C17.52 22 22 17.52 22 12S17.52 2 11.99 2zM12 20c-4.42 0-8-3.58-8-8s3.58-8 8-8 8 3.58 8 8-3.58 8-8 8zm0-6c-2.33 0-4.32 1.45-5.12 3.5h1.67c.69-1.19 1.97-2 3.45-2s2.75.81 3.45 2h1.67c-.8-2.05-2.79-3.5-5.12-3.5z"></path>
  </symbol>
  <symbol xmlns="http://www.w3.org/2000/svg" viewBox="0 0 24 24" id="neutral">
    <path d="M0 0h24v24H0V0z" fill="none"></path>
    <circle cx="15.5" cy="9.5" r="1.5"></circle>
    <circle cx="8.5" cy="9.5" r="1.5"></circle>
    <path d="M11.99 2C6.47 2 2 6.48 2 12s4.47 10 9.99 10C17.52 22 22 17.52 22 12S17.52 2 11.99 2zM12 20c-4.42 0-8-3.58-8-8s3.58-8 8-8 8 3.58 8 8-3.58 8-8 8zm0-4c-.73 0-1.38-.18-1.96-.52-.12.14-.86.98-1.01 1.15a5.49 5.49 0 0 0 5.95-.01c-.97-1.09-.01-.02-1.01-1.15-.59.35-1.24.53-1.97.53z"></path>
  </symbol>
  <symbol xmlns="http://www.w3.org/2000/svg" viewBox="0 0 24 24" id="positive">
    <path d="M0 0h24v24H0V0z" fill="none"></path>
    <circle cx="15.5" cy="9.5" r="1.5"></circle>
    <circle cx="8.5" cy="9.5" r="1.5"></circle>
    <path d="M11.99 2C6.47 2 2 6.48 2 12s4.47 10 9.99 10C17.52 22 22 17.52 22 12S17.52 2 11.99 2zM12 20c-4.42 0-8-3.58-8-8s3.58-8 8-8 8 3.58 8 8-3.58 8-8 8zm-5-6c.78 2.34 2.72 4 5 4s4.22-1.66 5-4H7z"></path>
  </symbol>
</svg>